# xmcd
#
# Track frame offsets:
#	150
#	12818
#	40679
#	77788
#	100080
#	112892
#	128603
#	144757
#	154865
#	175278
#	190213
#	216056
#	238734
#
# Disc length: 3381 seconds
#
# Revision: 2
# Processed by: cddbd v1.4b41PL1 Copyright (c) Steve Scherf et al.
# Submitted via: EZCDDA 4.3.2
#
DISCID=9c0d330d
DTITLE=Akins Jug Band
DYEAR=1900
DGENRE=
TTITLE0=Balanese
TTITLE1=White Room
TTITLE2=Too Rolling Stoned
TTITLE3=Tightrope
TTITLE4=Strange Brew
TTITLE5=Stone Free
TTITLE6=Riding The Blinds
TTITLE7=Nasty Dogs and Funky Kings
TTITLE8=Lost In The Blues
TTITLE9=Hideaway
TTITLE10=Day Of The Eagle
TTITLE11=Have A Cigar
TTITLE12=The Wind Cries Mary
EXTD=
EXTT0=
EXTT1=
EXTT2=
EXTT3=
EXTT4=
EXTT5=
EXTT6=
EXTT7=
EXTT8=
EXTT9=
EXTT10=
EXTT11=
EXTT12=
PLAYORDER=
